<?xml version="1.0" encoding="UTF-8"?>
<svg id="Layer_6" data-name="Layer 6" xmlns="http://www.w3.org/2000/svg" viewBox="0 0 512 512">
  <defs>
    <style>
      .cls-1 {
        fill: none;
        stroke: #e52051;
        stroke-miterlimit: 10;
        stroke-width: 1.37px;
      }
    </style>
  </defs>
  <path class="cls-1" d="M142.24,155.46c4.44,1.64,11.02,4.91,17.31,8.86,8.98,5.64,13.78,10.81,15.91,17.04,1.93,4.95,1.5,10.44-1.93,15.91-4.21,6.71-12.34,9.8-21.35,7.88l-.13.21c5.57,5.8,9.87,16.12,3.39,26.44-3.76,5.98-8.98,9.03-14.63,10.23-7.63,1.39-16.77-1.47-28.12-8.6-6.19-3.89-10.68-7.28-13.41-9.57l42.95-68.4ZM133.33,189.57l8.15,5.12c9.49,5.96,18.17,4.51,22.38-2.2,5.12-8.15.94-15.24-8.14-20.94-4.13-2.59-6.69-3.77-8.33-4.37l-14.06,22.39ZM112.41,222.9c1.56,1.41,4.07,3.13,7.27,5.14,9.29,5.83,19.99,7.8,26.34-2.31,5.96-9.49.27-18.53-9.53-24.69l-7.43-4.66-16.65,26.52Z"/>
  <path class="cls-1" d="M159.25,256v48.61c0,18.4,8.16,26.19,19.13,26.19,12.18,0,19.98-8.04,19.98-26.19v-48.61h10.72v47.88c0,25.22-13.28,35.57-31.07,35.57-16.81,0-29.48-9.62-29.48-35.09v-48.36h10.72Z"/>
  <path class="cls-1" d="M317.65,380.51v-82.11h11.57l26.31,41.54c6.09,9.62,10.84,18.27,14.74,26.68l.24-.12c-.97-10.96-1.22-20.95-1.22-33.75v-34.35h9.99v82.11h-10.72l-26.07-41.67c-5.73-9.14-11.21-18.52-15.35-27.41l-.37.12c.61,10.36.85,20.22.85,33.87v35.09h-9.99Z"/>
  <path class="cls-1" d="M231.64,343.34v-82.11h11.57l26.31,41.54c6.09,9.62,10.84,18.27,14.74,26.68l.24-.12c-.97-10.96-1.22-20.95-1.22-33.75v-34.35h9.99v82.11h-10.72l-26.07-41.67c-5.73-9.14-11.21-18.52-15.35-27.41l-.37.12c.61,10.36.85,20.22.85,33.87v35.09h-9.99Z"/>
  <path class="cls-1" d="M365.17,439.07l24-25.26,13.74-52.14,8.74,8.31-7.21,24.4c-1.98,6.69-3.66,11.99-5.74,17.9l.18.17c5.37-2.29,11.09-4.25,17.67-6.57l24.17-8.29,8.74,8.31-52.43,15.22-24.08,25.35-7.77-7.38Z"/>
</svg>