<?xml version="1.0" encoding="UTF-8"?>
<svg id="Layer_4" data-name="Layer 4" xmlns="http://www.w3.org/2000/svg" viewBox="0 0 512 512">
  <defs>
    <style>
      .cls-1 {
        fill: none;
        stroke: #e52051;
        stroke-miterlimit: 10;
        stroke-width: 1.37px;
      }
    </style>
  </defs>
  <path class="cls-1" d="M104.33,185.47c-3,1.5-8.99,3-16.68,3-17.8,0-31.2-11.24-31.2-31.95s13.4-33.17,32.98-33.17c7.87,0,12.83,1.69,14.99,2.81l-1.97,6.65c-3.09-1.5-7.5-2.62-12.74-2.62-14.8,0-24.64,9.46-24.64,26.05,0,15.46,8.9,25.39,24.27,25.39,4.97,0,10.02-1.03,13.3-2.62l1.69,6.46Z"/>
  <path class="cls-1" d="M135.7,239.54l-6.56,19.86h-8.43l21.45-63.15h9.84l21.55,63.15h-8.71l-6.75-19.86h-22.39ZM156.41,233.17l-6.18-18.18c-1.41-4.12-2.34-7.87-3.28-11.52h-.19c-.94,3.75-1.97,7.59-3.19,11.43l-6.18,18.27h19.02Z"/>
  <path class="cls-1" d="M262.74,231.67c-.47-8.81-1.03-19.39-.94-27.26h-.28c-2.16,7.4-4.78,15.27-7.96,23.98l-11.15,30.64h-6.18l-10.21-30.07c-3-8.9-5.53-17.05-7.31-24.55h-.19c-.19,7.87-.66,18.46-1.22,27.92l-1.69,27.08h-7.78l4.4-63.15h10.4l10.77,30.54c2.62,7.78,4.78,14.71,6.37,21.27h.28c1.59-6.37,3.84-13.3,6.65-21.27l11.24-30.54h10.4l3.93,63.15h-7.96l-1.59-27.73Z"/>
  <path class="cls-1" d="M347.81,225.91h-24.55v22.77h27.36v6.84h-35.51v-63.15h34.1v6.84h-25.95v19.96h24.55v6.75Z"/>
  <path class="cls-1" d="M383.91,196.26h8.15v56.31h26.98v6.84h-35.13v-63.15Z"/>
</svg>