<?xml version="1.0" encoding="UTF-8"?>
<svg id="Layer_2" data-name="Layer 2" xmlns="http://www.w3.org/2000/svg" version="1.1" viewBox="0 0 512.8 512.8">
  <defs>
    <style>
      .cls-1 {
        fill: none;
        stroke: #e52051;
        stroke-miterlimit: 10;
        stroke-width: 1.4px;
      }
    </style>
  </defs>
  <path class="cls-1" d="M103,181.6c.2,14.1,9.3,19.9,19.7,19.9s12-1.3,15.9-3l1.8,7.5c-3.7,1.7-10,3.6-19.1,3.6-17.7,0-28.3-11.6-28.3-29s10.2-31,27-31,23.7,16.5,23.7,27.1-.2,3.8-.4,4.9h-40.4ZM133.6,174.1c.1-6.6-2.7-17-14.5-17s-15.2,9.7-16,17h30.5Z"/>
  <path class="cls-1" d="M153.6,89.8h10.4v84.3h-10.4v-84.3Z"/>
  <path class="cls-1" d="M183.8,161.3c.2,14.1,9.3,19.9,19.7,19.9s12-1.3,15.9-3l1.8,7.5c-3.7,1.7-10,3.6-19.1,3.6-17.7,0-28.3-11.6-28.3-29s10.2-31,27-31,23.7,16.5,23.7,27.1-.2,3.8-.4,4.9h-40.4ZM214.5,153.8c.1-6.6-2.7-17-14.5-17s-15.2,9.7-16,17h30.5Z"/>
  <path class="cls-1" d="M214.9,223.6c0-7.4-.2-13.3-.5-18.8h9.4l.5,9.9h.2c4.3-7,11-11.2,20.4-11.2,13.9,0,24.3,11.8,24.3,29.2s-12.6,30.9-26.1,30.9-14.2-3.3-17.7-9h-.2v31.2h-10.3v-62.2ZM225.3,238.9c0,1.5.2,3,.5,4.3,1.9,7.2,8.2,12.2,15.7,12.2,11,0,17.5-9,17.5-22.2s-6.1-21.4-17.1-21.4-13.8,5.1-15.8,12.9c-.4,1.3-.7,2.8-.7,4.3v9.9Z"/>
  <path class="cls-1" d="M279.9,147.2h10.4v35.9h.2c1.7-3,4.3-5.6,7.5-7.4,3.1-1.8,6.8-3,10.7-3,7.7,0,20.1,4.7,20.1,24.6v34.2h-10.4v-33c0-9.3-3.4-17.1-13.3-17.1s-12.1,4.7-14,10.4c-.6,1.4-.7,3-.7,5v34.7h-10.4v-84.3Z"/>
  <path class="cls-1" d="M384.3,194.3l-.8-7.2h-.4c-3.2,4.5-9.4,8.5-17.6,8.5-11.6,0-17.6-8.2-17.6-16.5,0-13.9,12.3-21.5,34.6-21.4v-1.2c0-4.7-1.3-13.3-13.1-13.3s-10.9,1.7-15,4.3l-2.4-6.9c4.7-3.1,11.6-5.1,18.9-5.1,17.6,0,21.8,12,21.8,23.5v21.5c0,5,.2,9.9.9,13.8h-9.5ZM382.8,165c-11.4-.2-24.3,1.8-24.3,12.9s4.5,10,9.9,10,12.2-4.7,13.9-9.6c.4-1.1.6-2.3.6-3.3v-10Z"/>
  <path class="cls-1" d="M369.6,232.1c0-5.9-.1-10.8-.5-15.6h9.3l.6,9.5h.2c2.8-5.5,9.5-10.8,19-10.8s20.3,4.7,20.3,24.5v34.3h-10.4v-33.1c0-9.3-3.4-17-13.3-17s-12.2,4.9-14,10.7c-.5,1.3-.7,3.1-.7,4.9v34.6h-10.4v-41.9Z"/>
  <path class="cls-1" d="M396,287.9l-5.9,15.4,14,5.4-2.9,7.4-14-5.4-11.1,28.9c-2.6,6.7-2.1,11.1,3.3,13.2s4.6,1.4,5.9,1.5l-2.4,7.5c-2.2,0-5.4-.5-9.2-2s-7.6-4.6-9-8.1c-1.7-3.9-.8-9.1,1.6-15.4l11.2-29.3-8.3-3.2,2.9-7.4,8.3,3.2,4.9-12.9,10.5,1.1Z"/>
</svg>